{"title":"Marco Ferreri - Touche pas a la femme blanche (1974)","uid":6044893,"size":1465030543,"categoryP":"video","categoryS":"movies","magnet":"?xt=urn:btih:a99a53ce4a36ac188c482eff5f58c172c6334ed1&amp;dn=Marco+Ferreri+-+Touche+pas+a+la+femme+blanche+%281974%29&amp;tr=udp%3A%2F%2Ftracker.openbittorrent.com%3A80&amp;tr=udp%3A%2F%2Fopen.demonii.com%3A1337&amp;tr=udp%3A%2F%2Ftracker.coppersurfer.tk%3A6969&amp;tr=udp%3A%2F%2Fexodus.desync.com%3A6969","seeders":4,"leechers":0,"uploader":"mfccorrea","files":4,"time":1292518137,"description":"Marcello Mastroianni stars in this French farce, an absurd &quot;western&quot; set in Paris, with Mastroianni as the incurably vain General George Armstrong Custer. Richard Nixon is the American president, but everyone is costumed appropriately for the previous century. Buffalo Bill (Michel Piccoli), the famous scout, is here portrayed as a limp-wristed bungler. Ugo Tognazzi plays one of Custer's Native American opponents; he runs a curio shop selling Native artifacts made in sweatshops by white women. The climactic battle is held in a large construction excavation where Les Halles market used to be. The language the two sides use to justify their conflict is lifted from that used in the then-current Vietnam War.\n\n   General\n      Complete name : Touche pas a la femme blanche.avi\n      Format : AVI\n      Format/Info : Audio Video Interleave\n      File size : 1.36 GiB\n      Duration : 1h 49mn\n      Overall bit rate : 1 779 Kbps\n      Writing application : FairUse Wizard - http://fairusewizard.com\n      Writing library : The best and REALLY easy backup tool\n   Video #0\n      ID : 0\n      Format : MPEG-4 Visual\n      Format profile : AdvancedSimple@L5\n      Format settings, BVOP : Yes\n      Format settings, QPel : No\n      Format settings, GMC : No warppoints\n      Format settings, Matrix : Default (MPEG)\n      Muxing mode : Packed bitstream\n      Codec ID : XVID\n      Codec ID/Hint : XviD\n      Duration : 1h 49mn\n      Bit rate : 1 577 Kbps\n      Width : 640 pixels\n      Height : 384 pixels\n      Display aspect ratio : 1.667\n      Frame rate : 23.976 fps\n      Resolution : 24 bits\n      Colorimetry : 4:2:0\n      Scan type : Progressive\n      Bits/(Pixel*Frame) : 0.268\n      Stream size : 1.21 GiB (89%)\n      Writing library : XviD 1.2.1 (UTC 2008-12-04)\n   Audio #1\n      ID : 1\n      Format : AC-3\n      Format/Info : Audio Coding 3\n      Codec ID : 2000\n      Duration : 1h 49mn\n      Bit rate mode : Constant\n      Bit rate : 192 Kbps\n      Channel(s) : 2 channels\n      Channel positions : L R\n      Sampling rate : 48.0 KHz\n      Stream size : 151 MiB (11%)\n      Alignment : Split accross interleaves\n      Interleave, duration : 42 ms (1.00 video frame)\n      Interleave, preload duration : 500 ms\n &lt;a href=&quot;\nhttp://www.imdb.com/title/tt0072305/&quot; rel=&quot;nofollow&quot; target=&quot;_NEW&quot;&gt;\nhttp://www.imdb.com/title/tt0072305/&lt;/a&gt;\n\nFrench audio; English, Spanish and Portuguese subtitles\n\nMy rip of the Koch Lorber DVD\n\nMarco Ferreri - Touche pas a la femme blanche (1974)","torrent":{"xt":"urn:btih:a99a53ce4a36ac188c482eff5f58c172c6334ed1","amp;dn":"Marco+Ferreri+-+Touche+pas+a+la+femme+blanche+%281974%29","amp;tr":["udp%3A%2F%2Ftracker.openbittorrent.com%3A80","udp%3A%2F%2Fopen.demonii.com%3A1337","udp%3A%2F%2Ftracker.coppersurfer.tk%3A6969","udp%3A%2F%2Fexodus.desync.com%3A6969"],"infoHash":"a99a53ce4a36ac188c482eff5f58c172c6334ed1","infoHashBuffer":{"type":"Buffer","data":[169,154,83,206,74,54,172,24,140,72,46,255,95,88,193,114,198,51,78,209]},"announce":[],"urlList":[]}}